<svg xmlns="http://www.w3.org/2000/svg" xmlns:xlink="http://www.w3.org/1999/xlink" width="300" height="300" viewBox="0 0 300 300"><defs><clipPath id="b"><rect width="300" height="300"/></clipPath></defs><g id="a" clip-path="url(#b)"><rect width="300" height="300" fill="#c23e62"/><g transform="translate(-700.787 -454.787)"><g transform="translate(433.61 433.61)"><circle cx="150" cy="150" r="150" transform="translate(267.176 21.177)" fill="#c23e62"/><g transform="translate(357.47 92.871)"><g transform="translate(71.202 35.907)"><path d="M66.54,82.98a70.326,70.326,0,0,0,2.981-20.62c0-16.709-11.922-35.907-25.169-52.261L21.5,34.631Z" transform="translate(-21.5 -10.1)" fill="#fff"/></g><g transform="translate(10.265 72.88)"><path d="M52.445,20.5,3.1,73.827c10.6,18.131,28.812,30.219,49.345,30.219s38.748-12.088,49.345-30.219Z" transform="translate(-3.1 -20.5)" fill="#fff"/></g><path d="M82.794,22.753A273.848,273.848,0,0,0,59.612,0S0,50.839,0,88.168a70.325,70.325,0,0,0,2.981,20.62Z" fill="#fff"/></g></g></g></g></svg>